<svg width="100" height="70" viewBox="0 0 100 70" fill="none" xmlns="http://www.w3.org/2000/svg">
<rect width="16.7576" height="2.60918" transform="matrix(0.474251 -0.88039 0.879168 0.476512 14.1104 62.5994)" fill="#004AAD"/>
<rect width="16.7256" height="2.61418" transform="matrix(0.921076 0.389383 -0.387356 0.92193 6.04258 33.9532)" fill="#004AAD"/>
<rect width="16.746" height="2.61098" transform="matrix(0.670474 -0.741933 0.739879 0.672739 29.2945 39.9629)" fill="#38B6FF"/>
<rect width="19.9575" height="2.61293" transform="matrix(-0.832108 -0.554614 0.552255 -0.833675 38.5393 27.2471)" fill="#004AAD"/>
<rect width="19.9988" height="2.60752" transform="matrix(0.139041 -0.990287 0.990168 0.139881 41.5644 25.0354)" fill="#38B6FF"/>
<rect width="21.4997" height="2.61207" transform="matrix(-0.764866 -0.64419 0.641872 -0.766811 60.9229 45.699)" fill="#7ED957"/>
<rect width="21.538" height="2.60742" transform="matrix(-0.0863573 -0.996264 0.996218 -0.0868855 64.7412 42.9082)" fill="#7ED957"/>
<rect width="21.4783" height="2.61467" transform="matrix(-0.954253 0.298999 -0.29733 -0.954775 63.9112 51.2656)" fill="#7ED957"/>
<rect width="21.4946" height="2.61269" transform="matrix(-0.814026 -0.580828 0.578463 -0.815708 84.8285 63.3851)" fill="#7ED957"/>
<rect width="21.4999" height="2.61205" transform="matrix(-0.763485 -0.645826 0.643511 -0.765437 95.7093 38.6538)" fill="#008037"/>
<rect width="21.4799" height="2.61447" transform="matrix(-0.941103 -0.338121 0.336285 -0.94176 81.7744 26.2382)" fill="#008037"/>
<rect width="21.5218" height="2.60939" transform="matrix(0.501519 -0.865147 0.863805 0.503827 80.5215 21.3887)" fill="#008037"/>
<rect width="16.7367" height="2.61244" transform="matrix(0.794466 0.607309 -0.604953 0.796261 28.9414 45.3846)" fill="#38B6FF"/>
<ellipse cx="26.227" cy="44.3077" rx="7.66871" ry="7.69231" fill="#38B6FF"/>
<ellipse cx="66.411" cy="48.4616" rx="7.66871" ry="7.69231" fill="#7ED957"/>
<ellipse cx="41.9479" cy="56.8462" rx="5.13804" ry="5.15385" fill="#38B6FF"/>
<ellipse cx="41.9479" cy="28.5385" rx="5.13804" ry="5.15385" fill="#38B6FF"/>
<ellipse cx="18.635" cy="12.6923" rx="5.13804" ry="5.15385" fill="#004AAD"/>
<ellipse cx="63.8804" cy="17.6154" rx="5.13804" ry="5.15385" fill="#7ED957"/>
<ellipse cx="84.816" cy="62.3077" rx="3.83436" ry="3.84615" fill="#7ED957"/>
<ellipse cx="96.1657" cy="37.3846" rx="3.83436" ry="3.84615" fill="#008037"/>
<ellipse cx="92.3313" cy="3.99996" rx="3.83436" ry="3.84615" fill="#008037"/>
<ellipse cx="13.6503" cy="65.5385" rx="3.83436" ry="3.84615" fill="#004AAD"/>
<ellipse cx="3.83436" cy="34.9231" rx="3.83436" ry="3.84615" fill="#004AAD"/>
<ellipse cx="45.7055" cy="3.84615" rx="3.83436" ry="3.84615" fill="#38B6FF"/>
<ellipse cx="80.6748" cy="23.5385" rx="3.06748" ry="3.07692" fill="#008037"/>
</svg>
